<svg width="1200" height="630" viewBox="0 0 1200 630" fill="none" xmlns="http://www.w3.org/2000/svg">
  <defs>
    <linearGradient id="bg" x1="0" y1="0" x2="1200" y2="630" gradientUnits="userSpaceOnUse">
      <stop offset="0" stop-color="#F6F0E6"/>
      <stop offset="1" stop-color="#FFFFFF"/>
    </linearGradient>
  </defs>
  <rect width="1200" height="630" fill="url(#bg)"/>
  <g opacity="0.18">
    <path d="M92 478C214 396 308 362 438 352C582 341 685 377 820 438C947 496 1036 504 1108 476" stroke="#0B3B5B" stroke-width="12" stroke-linecap="round"/>
    <path d="M96 506C236 420 330 388 468 382C610 376 716 414 844 476C961 533 1044 541 1104 514" stroke="#2F6EA5" stroke-width="10" stroke-linecap="round"/>
  </g>
  <g>
    <text x="84" y="220" font-family="ui-serif, Georgia, serif" font-size="72" font-weight="700" fill="#0B3B5B">书境 BookMind</text>
    <text x="88" y="292" font-family="ui-sans-serif, system-ui, -apple-system, Segoe UI, Roboto, Helvetica, Arial" font-size="32" fill="#2F6EA5">懂你的 AI 阅读伴侣</text>
    <text x="88" y="360" font-family="ui-sans-serif, system-ui, -apple-system, Segoe UI, Roboto, Helvetica, Arial" font-size="22" fill="#334155">不推送算法爱看的内容，只推荐你此刻真正需要的书。</text>
  </g>
  <g>
    <rect x="84" y="420" width="360" height="110" rx="20" fill="#0B3B5B" opacity="0.06"/>
    <text x="108" y="468" font-family="ui-sans-serif, system-ui, -apple-system, Segoe UI, Roboto, Helvetica, Arial" font-size="18" fill="#0B3B5B" opacity="0.9">个性化推荐 · 对话寻书 · 精准搜索</text>
    <text x="108" y="504" font-family="ui-sans-serif, system-ui, -apple-system, Segoe UI, Roboto, Helvetica, Arial" font-size="18" fill="#0B3B5B" opacity="0.9">书单管理 · 今日文化热点</text>
  </g>
</svg>

